#!OML:ASF F:\VICON\USERDATA\INSTALL\rory3\rory3.ASF
:FULLY-SPECIFIED
:DEGREES
3246
root 1.95311 17.8505 -6.12912 -179.273 226.261 -177.182
lowerback 7.54427 2.33859 3.0149
upperback 2.52728 3.36284 6.25671
thorax -1.81365 1.62535 4.49702
lowerneck -23.6474 4.76298 -4.02762
upperneck 19.0159 7.54355 1.76364
head 9.67866 3.40388 2.38321
rclavicle 2.3059e-014 4.77083e-014
rhumerus -47.4956 -20.2157 -56.7298
rradius 33.8196
rwrist 13.3071
rhand -29.1189 -0.0373611
rfingers 7.12502
rthumb -2.46653 -30.0028
lclavicle 2.3059e-014 4.77083e-014
lhumerus -36.7483 12.1808 76.603
lradius 34.1908
lwrist -5.72015
lhand -15.1325 26.6367
lfingers 7.12502
lthumb 11.0369 1136.33
rfemur -8.06416 -0.112015 22.6221
rtibia 29.1598
rfoot -22.3876 -4.95438
rtoes 10.7137
lfemur -24.8298 -2.53045 -16.0549
ltibia 23.6992
lfoot -6.45106 5.38843
ltoes -15.4365
3247
root 1.93101 17.8474 -6.10994 -179.333 226.26 -176.994
lowerback 7.41952 2.36609 2.84727
upperback 2.50149 3.3828 6.26667
thorax -1.7828 1.63645 4.60417
lowerneck -23.6961 4.70259 -4.05992
upperneck 19.0062 7.48859 1.70261
head 9.68754 3.36821 2.36074
rclavicle 3.49861e-014 9.54166e-015
rhumerus -46.9709 -19.3853 -57.3903
rradius 33.8193
rwrist 12.6879
rhand -28.8539 -0.0972677
rfingers 7.12502
rthumb -2.21065 -30.0656
lclavicle 3.49861e-014 9.54166e-015
lhumerus -36.4697 11.8663 76.7773
lradius 33.9155
lwrist -5.65323
lhand -15.5607 26.9821
lfingers 7.12502
lthumb 10.6239 1136.69
rfemur -8.0044 -0.0685491 22.4895
rtibia 29.1103
rfoot -22.3475 -4.89991
rtoes 11.4839
lfemur -24.918 -2.58643 -16.3023
ltibia 22.8632
lfoot -6.34502 5.38555
ltoes -15.5128
3248
root 1.90997 17.8414 -6.08572 -179.46 226.313 -176.796
lowerback 7.37172 2.4074 2.71406
upperback 2.45325 3.4303 6.25103
thorax -1.81626 1.66139 4.65907
lowerneck -23.7484 4.64459 -4.13623
upperneck 19.1142 7.41927 1.79071
head 9.73049 3.33795 2.39863
rclavicle -2.62396e-014 5.725e-014
rhumerus -46.54 -18.7906 -57.8084
rradius 33.7003
rwrist 12.699
rhand -28.2738 0.760722
rfingers 7.12502
rthumb -1.6504 -29.2126
lclavicle -2.62396e-014 5.725e-014
lhumerus -36.2702 11.6682 76.8712
lradius 33.581
lwrist -5.74291
lhand -15.8068 27.1065
lfingers 7.12502
lthumb 10.3865 1136.83
rfemur -7.88823 -0.119892 22.3169
rtibia 29.1013
rfoot -22.5251 -4.76282
rtoes 11.732
lfemur -24.8459 -2.8398 -16.5128
ltibia 21.9407
lfoot -6.33983 5.67981
ltoes -15.7732
3249
root 1.88896 17.836 -6.05987 -179.509 226.392 -176.787
lowerback 7.34517 2.42893 2.75097
upperback 2.42484 3.46194 6.24187
thorax -1.83017 1.67741 4.62606
lowerneck -23.75 4.6008 -4.2473
upperneck 19.1965 7.35254 1.98475
head 9.74891 3.3209 2.47666
rclavicle -2.26615e-014 -2.8625e-014
rhumerus -46.0185 -18.4104 -58.2098
rradius 33.4757
rwrist 13.2212
rhand -27.8379 0.928462
rfingers 7.12502
rthumb -1.22936 -29.0477
lclavicle -2.26615e-014 -2.8625e-014
lhumerus -36.1291 11.6261 76.8486
lradius 33.2442
lwrist -5.97235
lhand -15.8545 26.9843
lfingers 7.12502
lthumb 10.3405 1136.71
rfemur -7.72837 -0.140545 22.2845
rtibia 29.1259
rfoot -22.7048 -4.61844
rtoes 12.063
lfemur -24.6704 -3.3013 -16.5258
ltibia 20.9744
lfoot -6.47781 6.16837
ltoes -16.2368
3250
root 1.86943 17.8339 -6.04073 -179.414 226.401 -176.935
lowerback 7.30849 2.42999 2.90233
upperback 2.41175 3.47166 6.23055
thorax -1.81408 1.68193 4.52911
lowerneck -23.7399 4.56842 -4.23224
upperneck 19.1332 7.2987 1.99266
head 9.72688 3.29997 2.4671
rclavicle 4.96962e-014 -3.18055e-015
rhumerus -45.4189 -18.3303 -58.6514
rradius 33.284
rwrist 13.905
rhand -27.5343 0.0591232
rfingers 7.12502
rthumb -0.936129 -29.9186
lclavicle 4.96962e-014 -3.18055e-015
lhumerus -35.9511 11.4413 76.8533
lradius 33.0329
lwrist -6.08235
lhand -15.5453 27.1285
lfingers 7.12502
lthumb 10.6388 1136.84
rfemur -7.62037 -0.0347945 22.4052
rtibia 29.1452
rfoot -22.8261 -4.58094
rtoes 12.6932
lfemur -24.5752 -3.70576 -16.4126
ltibia 20.0302
lfoot -6.6778 6.49222
ltoes -16.9637
3251
root 1.8482 17.832 -6.02157 -179.381 226.377 -176.955
lowerback 7.26403 2.44113 2.93274
upperback 2.36102 3.48991 6.21704
thorax -1.84039 1.69156 4.49667
lowerneck -23.6825 4.52838 -4.15398
upperneck 19.0719 7.25441 1.81941
head 9.70795 3.26541 2.38467
rclavicle 2.14687e-014 8.90555e-014
rhumerus -44.949 -18.1018 -59.0575
rradius 33.1987
rwrist 14.5332
rhand -27.1357 -0.306571
rfingers 7.12502
rthumb -0.55113 -30.2856
lclavicle 2.14687e-014 8.90555e-014
lhumerus -35.8291 11.1993 76.9639
lradius 32.9083
lwrist -5.96366
lhand -15.4437 27.3239
lfingers 7.12502
lthumb 10.7368 1137.03
rfemur -7.51931 -0.0131714 22.4333
rtibia 29.1402
rfoot -22.9254 -4.57741
rtoes 12.7927
lfemur -24.5472 -3.94034 -16.4603
ltibia 19.1771
lfoot -6.83927 6.74875
ltoes -17.4893
3252
root 1.82558 17.8277 -5.99811 -179.461 226.427 -176.799
lowerback 7.17681 2.47325 2.82672
upperback 2.34456 3.52166 6.17989
thorax -1.81501 1.70855 4.51735
lowerneck -23.8457 4.47989 -4.18666
upperneck 19.1576 7.21877 1.77957
head 9.76922 3.23775 2.37887
rclavicle 2.18663e-014 -6.04305e-014
rhumerus -44.3598 -17.4338 -59.6716
rradius 33.1551
rwrist 14.5627
rhand -26.8934 -0.599905
rfingers 7.12502
rthumb -0.317101 -30.5794
lclavicle 2.18663e-014 -6.04305e-014
lhumerus -35.7013 11.1783 77.0721
lradius 32.8456
lwrist -5.95699
lhand -15.5404 27.3717
lfingers 7.12502
lthumb 10.6435 1137.08
rfemur -7.43432 0.0130006 22.3141
rtibia 29.1435
rfoot -22.9987 -4.57016
rtoes 12.5707
lfemur -24.5436 -3.95438 -16.7185
ltibia 18.4262
lfoot -7.00564 7.14644
ltoes -17.4069
3253
root 1.80383 17.823 -5.97253 -179.505 226.442 -176.741
lowerback 7.05625 2.49391 2.84933
upperback 2.37271 3.54032 6.11519
thorax -1.71436 1.71846 4.44029
lowerneck -24.0661 4.42012 -4.20726
upperneck 19.2283 7.13625 1.85958
head 9.83173 3.20461 2.40745
rclavicle -3.57812e-014 -6.36111e-015
rhumerus -43.6428 -16.8305 -60.3899
rradius 33.0093
rwrist 14.3697
rhand -26.6075 -0.971612
rfingers 7.12502
rthumb -0.0410092 -30.9514
lclavicle -3.57812e-014 -6.36111e-015
lhumerus -35.4731 11.0563 77.1905
lradius 32.7602
lwrist -5.90394
lhand -15.6829 27.2681
lfingers 7.12502
lthumb 10.506 1136.99
rfemur -7.31587 0.0191432 22.2659
rtibia 29.1709
rfoot -23.1112 -4.55212
rtoes 12.3535
lfemur -24.493 -3.87833 -16.9663
ltibia 17.7007
lfoot -7.10735 7.54809
ltoes -17.6718
3254
root 1.78704 17.8161 -5.94526 -179.511 226.289 -176.834
lowerback 7.05253 2.45318 3.05146
upperback 2.37593 3.49793 6.06418
thorax -1.69093 1.69708 4.27696
lowerneck -24.2273 4.4015 -4.19137
upperneck 19.2808 7.09823 1.92281
head 9.87788 3.19373 2.42835
rclavicle 1.07344e-014 7.31528e-014
rhumerus -42.9372 -16.0991 -61.224
rradius 32.9008
rwrist 13.7935
rhand -26.1158 -1.42861
rfingers 7.12502
rthumb 0.433902 -31.4079
lclavicle 1.07344e-014 7.31528e-014
lhumerus -35.2321 10.8554 77.3365
lradius 32.598
lwrist -5.77803
lhand -15.664 26.9723
lfingers 7.12502
lthumb 10.5243 1136.69
rfemur -7.12419 -0.135928 22.3112
rtibia 29.2177
rfoot -23.3134 -4.54229
rtoes 12.1565
lfemur -24.3621 -3.99279 -17.0867
ltibia 17.0135
lfoot -7.37566 7.73901
ltoes -17.9037
3255
root 1.77278 17.8107 -5.91653 -179.613 226.052 -176.877
lowerback 7.19148 2.37831 3.22344
upperback 2.33107 3.42214 6.01876
thorax -1.7976 1.65879 4.13282
lowerneck -24.3044 4.3849 -4.13079
upperneck 19.3458 7.07761 1.84773
head 9.92126 3.17668 2.39412
rclavicle -4.21423e-014 -5.08889e-014
rhumerus -42.303 -15.2665 -62.0815
rradius 32.8717
rwrist 13.0533
rhand -25.5444 -1.89783
rfingers 7.12502
rthumb 0.985741 -31.8753
lclavicle -4.21423e-014 -5.08889e-014
lhumerus -35.1063 10.534 77.5513
lradius 32.5692
lwrist -5.55944
lhand -15.3615 27.2459
lfingers 7.12502
lthumb 10.8161 1136.95
rfemur -6.88944 -0.477589 22.3059
rtibia 29.2779
rfoot -23.4169 -4.57463
rtoes 11.328
lfemur -24.1874 -4.4873 -17.1682
ltibia 16.4315
lfoot -7.74816 8.1765
ltoes -18.0887
3256
root 1.75363 17.8061 -5.89102 -179.653 225.989 -176.776
lowerback 7.09879 2.38195 3.18049
upperback 2.30345 3.4204 5.97001
thorax -1.7742 1.65902 4.10882
lowerneck -24.4669 4.34754 -4.13399
upperneck 19.4058 7.04686 1.80579
head 9.97441 3.15397 2.38248
rclavicle -3.97569e-014 5.08889e-014
rhumerus -41.5705 -14.7285 -62.7493
rradius 32.7058
rwrist 12.8057
rhand -25.0223 -2.0191
rfingers 7.12502
rthumb 1.49004 -31.9936
lclavicle -3.97569e-014 5.08889e-014
lhumerus -34.8635 10.3025 77.807
lradius 32.6004
lwrist -5.34258
lhand -14.6954 28.2551
lfingers 7.12502
lthumb 11.4585 1137.92
rfemur -6.85899 -0.700795 22.1976
rtibia 29.3579
rfoot -23.484 -4.47677
rtoes 10.8406
lfemur -24.1664 -4.9403 -17.3181
ltibia 15.9455
lfoot -7.95497 9.08987
ltoes -18.3337
3257
root 1.72952 17.7964 -5.87004 -179.548 225.979 -176.782
lowerback 6.92165 2.42745 3.10375
upperback 2.26199 3.46817 5.97458
thorax -1.72596 1.68404 4.15859
lowerneck -24.4721 4.25783 -4.26157
upperneck 19.3005 6.96551 1.81131
head 9.93583 3.1105 2.38956
rclavicle -2.42517e-014 3.18055e-014
rhumerus -40.8305 -14.4369 -63.1416
rradius 32.3548
rwrist 13.2322
rhand -24.9114 -2.16577
rfingers 7.12502
rthumb 1.59716 -32.1395
lclavicle -2.42517e-014 3.18055e-014
lhumerus -34.6758 10.1632 78.11
lradius 32.6509
lwrist -5.20626
lhand -14.3112 28.7598
lfingers 7.12502
lthumb 11.829 1138.41
rfemur -6.88969 -0.815899 22.1898
rtibia 29.4245
rfoot -23.5713 -4.3578
rtoes 10.4848
lfemur -24.2296 -4.80489 -17.5293
ltibia 15.5726
lfoot -8.04325 9.59578
ltoes -18.612
3258
root 1.70828 17.7863 -5.84823 -179.489 225.963 -176.859
lowerback 6.86058 2.47372 3.13523
upperback 2.25037 3.52873 5.97113
thorax -1.70496 1.71453 4.13431
lowerneck -24.4348 4.15818 -4.39879
upperneck 19.1227 6.86963 1.81813
head 9.86411 3.06222 2.39306
rclavicle 7.59357e-014 9.54166e-015
rhumerus -40.1011 -14.3057 -63.4211
rradius 31.9463
rwrist 14.0694
rhand -25.0129 -2.45558
rfingers 7.12502
rthumb 1.49909 -32.4301
lclavicle 7.59357e-014 9.54166e-015
lhumerus -34.4932 9.84243 78.4989
lradius 32.6292
lwrist -5.21063
lhand -14.4049 28.6868
lfingers 7.12502
lthumb 11.7387 1138.34
rfemur -6.78861 -0.818304 22.2405
rtibia 29.4399
rfoot -23.6984 -4.32937
rtoes 10.1733
lfemur -24.2354 -4.60723 -17.7303
ltibia 15.3982
lfoot -8.10366 9.88772
ltoes -18.6555
